# xmcd
#
# Track frame offsets:
#	151
#	17388
#	34473
#	53232
#	62380
#	78555
#	91471
#	109398
#	122863
#	133877
#	156738
#	168247
#	185348
#	198267
#
# Disc length: 2941 seconds
#
# Revision: 0
# Processed by: cddbd v1.4PL0 Copyright (c) Steve Scherf et al.
# Submitted via: dBpowerAMP V4.0
#
DISCID=c30b7b0e
DTITLE=Rob Wullenjohn - Blue On Green
DYEAR=1900
DGENRE=Blues
TTITLE0=Rakish Paddy/Blue on Green
TTITLE1=I Hear U Knockin'
TTITLE2=Blues for No-One
TTITLE3=Jigsaw Puzzle Blues
TTITLE4=Three Way Jam
TTITLE5=Shand's  Blues
TTITLE6=Full Load
TTITLE7=I'm Down
TTITLE8=Leaving Town Blues
TTITLE9=The Water Is Wide
TTITLE10=Copper and Brass
TTITLE11=Long Blue
TTITLE12=Grass Attack
TTITLE13=Old Stone (w/Simone Nelson)
EXTD=
EXTT0=
EXTT1=
EXTT2=
EXTT3=
EXTT4=
EXTT5=
EXTT6=
EXTT7=
EXTT8=
EXTT9=
EXTT10=
EXTT11=
EXTT12=
EXTT13=
PLAYORDER=
